<svg xmlns="http://www.w3.org/2000/svg" xmlns:xlink="http://www.w3.org/1999/xlink" width="27" height="27" viewBox="0 0 27 27">
  <defs>
    <clipPath id="clip-path">
      <rect id="Rectangle_227" data-name="Rectangle 227" width="27" height="27" transform="translate(0.001 0.309)" fill="#5b618a" stroke="#707070" stroke-width="1"/>
    </clipPath>
  </defs>
  <g id="comments" transform="translate(-0.001 -0.309)" clip-path="url(#clip-path)">
    <g id="comment_black_24dp" transform="translate(-0.961 -0.35)">
      <path id="Path_958" data-name="Path 958" d="M0,0H28.179V28.179H0Z" fill="none"/>
      <path id="Path_959" data-name="Path 959" d="M28.054,7.451a2.647,2.647,0,0,0-2.337-2.868H6.932A2.655,2.655,0,0,0,4.583,7.451V24.657a2.655,2.655,0,0,0,2.348,2.868H23.37s2.475,0,3.689,0,1-3.332,1-3.332ZM22.2,21.789H10.454A1.328,1.328,0,0,1,9.28,20.355a1.328,1.328,0,0,1,1.174-1.434H22.2a1.328,1.328,0,0,1,1.174,1.434A1.328,1.328,0,0,1,22.2,21.789Zm0-4.3H10.454A1.328,1.328,0,0,1,9.28,16.054a1.328,1.328,0,0,1,1.174-1.434H22.2a1.328,1.328,0,0,1,1.174,1.434A1.328,1.328,0,0,1,22.2,17.488Zm0-4.3H10.454A1.328,1.328,0,0,1,9.28,11.752a1.328,1.328,0,0,1,1.174-1.434H22.2a1.328,1.328,0,0,1,1.174,1.434A1.328,1.328,0,0,1,22.2,13.186Z" transform="translate(-2.235 -2.235)" fill="#5b618a"/>
    </g>
  </g>
</svg>
