<?xml version="1.0" encoding="UTF-8"?>
<svg xmlns="http://www.w3.org/2000/svg" xmlns:xlink="http://www.w3.org/1999/xlink" width="392px" height="188px" viewBox="0 0 392 188" version="1.1">
<defs>
<filter id="alpha" filterUnits="objectBoundingBox" x="0%" y="0%" width="100%" height="100%">
  <feColorMatrix type="matrix" in="SourceGraphic" values="0 0 0 0 1 0 0 0 0 1 0 0 0 0 1 0 0 0 1 0"/>
</filter>
<mask id="mask0">
  <g filter="url(#alpha)">
<rect x="0" y="0" width="392" height="188" style="fill:rgb(0%,0%,0%);fill-opacity:0.0784314;stroke:none;"/>
  </g>
</mask>
<clipPath id="clip1">
  <rect x="0" y="0" width="392" height="188"/>
</clipPath>
<g id="surface5" clip-path="url(#clip1)">
<path style=" stroke:none;fill-rule:nonzero;fill:rgb(43.921569%,43.921569%,43.921569%);fill-opacity:1;" d="M 177.867188 175.273438 C 169.648438 179.050781 159.945312 179.085938 151.695312 175.363281 C 143.4375 171.644531 137.601562 164.601562 135.941406 156.371094 L 135.941406 156.339844 C 129.167969 154.445312 123.1875 150.730469 118.785156 145.6875 C 108.828125 150.722656 96.984375 151.660156 86.21875 148.273438 L 84.910156 147.867188 C 76.507812 160.25 60.730469 166.832031 44.910156 164.558594 C 29.085938 162.285156 16.3125 151.601562 12.511719 137.464844 C 8.203125 137.519531 3.933594 136.710938 0.0117188 135.09375 L 0.0117188 0.00390625 L 392.011719 0.00390625 L 392.011719 150.796875 C 387 156.613281 380.140625 160.886719 372.363281 163.039062 C 357.042969 167.296875 340.40625 162.78125 330.171875 151.585938 C 321.949219 155.363281 312.25 155.394531 303.996094 151.675781 C 295.746094 147.953125 289.90625 140.914062 288.246094 132.679688 L 288.246094 132.652344 C 286.324219 132.113281 284.457031 131.425781 282.667969 130.597656 C 277.886719 144.140625 264.867188 153.921875 249.320312 155.644531 L 247.945312 155.796875 C 246.375 170.273438 235.378906 182.476562 220.0625 186.734375 C 216.296875 187.78125 212.382812 188.316406 208.445312 188.316406 C 196.625 188.3125 185.417969 183.535156 177.867188 175.273438 Z M 177.867188 175.273438 "/>
</g>
</defs>
<g id="surface1">
<use xlink:href="#surface5" mask="url(#mask0)"/>
<path style=" stroke:none;fill-rule:nonzero;fill:rgb(90.980392%,87.058824%,92.156863%);fill-opacity:1;" d="M 177.867188 158.238281 C 169.648438 162.019531 159.945312 162.050781 151.695312 158.332031 C 143.4375 154.609375 137.601562 147.570312 135.941406 139.335938 L 135.941406 139.304688 C 129.167969 137.410156 123.1875 133.699219 118.785156 128.65625 C 108.828125 133.6875 96.984375 134.628906 86.21875 131.242188 L 84.910156 130.832031 C 76.507812 143.214844 60.730469 149.800781 44.910156 147.527344 C 29.085938 145.25 16.3125 134.566406 12.511719 120.429688 C 8.203125 120.488281 3.933594 119.675781 0.0117188 118.058594 L 0.0117188 0.00390625 L 392.011719 0.00390625 L 392.011719 133.765625 C 387 139.578125 380.140625 143.851562 372.363281 146.007812 C 357.042969 150.265625 340.40625 145.746094 330.171875 134.550781 C 321.949219 138.328125 312.25 138.363281 303.996094 134.640625 C 295.746094 130.917969 289.90625 123.878906 288.246094 115.648438 L 288.246094 115.617188 C 286.324219 115.078125 284.457031 114.390625 282.667969 113.5625 C 277.886719 127.109375 264.867188 136.890625 249.320312 138.613281 L 247.945312 138.765625 C 246.375 153.242188 235.378906 165.441406 220.0625 169.703125 C 216.296875 170.75 212.382812 171.28125 208.445312 171.28125 C 196.625 171.28125 185.417969 166.5 177.867188 158.238281 Z M 177.867188 158.238281 "/>
</g>
</svg>
