<svg xmlns="http://www.w3.org/2000/svg" width="392.002" height="553.966" viewBox="0 0 392.002 553.966">
  <path id="clouds" d="M-16987.416-2005.872v-449.287a38.76,38.76,0,0,1,16.826,8.178c4.4-7.267,11.885-10.28,20.2-8.121a28.5,28.5,0,0,1,8.971,4.258c1.084-11.169,5.684-20.526,13.553-25.425l.98-.611c-6.295-18.709-4.119-37.431,5.516-47.472s24.844-9.452,38.566,1.5c4.4-7.267,11.885-10.276,20.2-8.116,7.854,2.038,15.566,8.463,21.082,17.46,11.434-18.666,30.6-28.642,46.133-22.78l1.113.421c9.99-16.129,25.615-25.5,39.633-23.769s23.688,14.239,24.516,31.708c8.424-.8,15.691,3.4,19.576,11.316s3.967,18.644.2,28.928l-.018.043a31.488,31.488,0,0,1,5.566,12.947c19.654-14.23,44.686-15.192,57.336-1.674l.838.889c16.242-9.378,34.646-10.237,46.662-2.185a27.324,27.324,0,0,1,4.557,3.824v467.965Z" transform="translate(16987.416 2559.838)" fill="#5b618a"/>
</svg>
