<svg xmlns="http://www.w3.org/2000/svg" width="392.001" height="207.343" viewBox="0 0 392.001 207.343">
  <g id="Clouds" transform="translate(-0.499 -0.5)">
    <path id="gray_cloud" data-name="gray cloud" d="M-3442.893-6731.631a29.2,29.2,0,0,1-26.175.1,29.224,29.224,0,0,1-15.753-20.913l0-.035a35.092,35.092,0,0,1-17.157-11.726,40.028,40.028,0,0,1-32.565,2.847l-1.308-.45a39.7,39.7,0,0,1-40,18.38,39.75,39.75,0,0,1-32.4-29.833,29.2,29.2,0,0,1-12.5-2.612v-148.741h392v166.035A39.651,39.651,0,0,1-3248.4-6745.1a39.727,39.727,0,0,1-42.191-12.613,29.209,29.209,0,0,1-26.174.1,29.239,29.239,0,0,1-15.751-20.915l0-.033a35.132,35.132,0,0,1-5.579-2.262,40.115,40.115,0,0,1-33.347,27.58l-1.373.168a39.7,39.7,0,0,1-27.886,34.064,39.66,39.66,0,0,1-11.617,1.74A39.739,39.739,0,0,1-3442.893-6731.631Z" transform="translate(3621.261 6925.118)" fill="#707070" opacity="0.08"/>
    <path id="pink_cloud" data-name="pink cloud" d="M-3442.893-6731.631a29.2,29.2,0,0,1-26.175.1,29.224,29.224,0,0,1-15.753-20.913l0-.035a35.092,35.092,0,0,1-17.157-11.726,40.028,40.028,0,0,1-32.565,2.847l-1.308-.45a39.7,39.7,0,0,1-40,18.38,39.75,39.75,0,0,1-32.4-29.833,29.2,29.2,0,0,1-12.5-2.612v-129.986h392v147.28A39.651,39.651,0,0,1-3248.4-6745.1a39.727,39.727,0,0,1-42.191-12.613,29.209,29.209,0,0,1-26.174.1,29.239,29.239,0,0,1-15.751-20.915l0-.033a35.132,35.132,0,0,1-5.579-2.262,40.115,40.115,0,0,1-33.347,27.58l-1.373.168a39.7,39.7,0,0,1-27.886,34.064,39.66,39.66,0,0,1-11.617,1.74A39.739,39.739,0,0,1-3442.893-6731.631Z" transform="translate(3621.261 6906.363)" fill="#e8deeb"/>
  </g>
</svg>
