<svg xmlns="http://www.w3.org/2000/svg" width="393" height="273" viewBox="0 0 393 273">
  <g id="Clouds" transform="translate(-12.996 68.761)">
    <path id="Cover" d="M-8354,586.558h393v273h-393Z" transform="translate(8366.995 -655.32)" fill="#e8deeb"/>
    <path id="Path_2932" data-name="Path 2932" d="M70.364,20.391c.212-1.517-1.928-2.764-3.539-2.895a9.1,9.1,0,0,1-2.291-.2c-1.574-.55-2.206-2.585-3.739-3.233a4.392,4.392,0,0,0-3.588.51,9.348,9.348,0,0,1-3.457,1.345c-1.08.069-2.259-.334-3.2.2-.705.408-1.076,1.223-1.725,1.688a4.138,4.138,0,0,1-2.255.612,6.287,6.287,0,0,0-2.328.379,1.837,1.837,0,0,0-1.162,1.867Z" transform="translate(45.192 -9.632)" fill="#fff"/>
    <path id="Path_4253" data-name="Path 4253" d="M70.364,20.391c.212-1.517-1.928-2.764-3.539-2.895a9.1,9.1,0,0,1-2.291-.2c-1.574-.55-2.206-2.585-3.739-3.233a4.392,4.392,0,0,0-3.588.51,9.348,9.348,0,0,1-3.457,1.345c-1.08.069-2.259-.334-3.2.2-.705.408-1.076,1.223-1.725,1.688a4.138,4.138,0,0,1-2.255.612,6.287,6.287,0,0,0-2.328.379,1.837,1.837,0,0,0-1.162,1.867Z" transform="translate(13.617 38.942)" fill="#fff"/>
    <path id="Path_4074" data-name="Path 4074" d="M70.364,20.391c.212-1.517-1.928-2.764-3.539-2.895a9.1,9.1,0,0,1-2.291-.2c-1.574-.55-2.206-2.585-3.739-3.233a4.392,4.392,0,0,0-3.588.51,9.348,9.348,0,0,1-3.457,1.345c-1.08.069-2.259-.334-3.2.2-.705.408-1.076,1.223-1.725,1.688a4.138,4.138,0,0,1-2.255.612,6.287,6.287,0,0,0-2.328.379,1.837,1.837,0,0,0-1.162,1.867Z" transform="translate(163.071 5.422)" fill="#fff"/>
    <path id="Path_4075" data-name="Path 4075" d="M70.364,20.391c.212-1.517-1.928-2.764-3.539-2.895a9.1,9.1,0,0,1-2.291-.2c-1.574-.55-2.206-2.585-3.739-3.233a4.392,4.392,0,0,0-3.588.51,9.348,9.348,0,0,1-3.457,1.345c-1.08.069-2.259-.334-3.2.2-.705.408-1.076,1.223-1.725,1.688a4.138,4.138,0,0,1-2.255.612,6.287,6.287,0,0,0-2.328.379,1.837,1.837,0,0,0-1.162,1.867Z" transform="translate(298.539 -3.316)" fill="#fff"/>
    <path id="Path_2930" data-name="Path 2930" d="M59.544,56.255c.388-2.816-3.587-5.135-6.574-5.378-1.424-.114-2.9.1-4.255-.368-2.925-1.035-4.089-4.793-6.942-6-2.133-.9-4.592-.1-6.657.942s-4.141,2.35-6.424,2.5c-2.008.129-4.193-.616-5.948.368-1.31.73-2,2.236-3.2,3.132a7.652,7.652,0,0,1-4.188,1.134,12.209,12.209,0,0,0-4.317.7,3.417,3.417,0,0,0-2.164,3.463Z" transform="translate(33.522 -40.966)" fill="#fff"/>
    <path id="Path_4252" data-name="Path 4252" d="M59.544,56.255c.388-2.816-3.587-5.135-6.574-5.378-1.424-.114-2.9.1-4.255-.368-2.925-1.035-4.089-4.793-6.942-6-2.133-.9-4.592-.1-6.657.942s-4.141,2.35-6.424,2.5c-2.008.129-4.193-.616-5.948.368-1.31.73-2,2.236-3.2,3.132a7.652,7.652,0,0,1-4.188,1.134,12.209,12.209,0,0,0-4.317.7,3.417,3.417,0,0,0-2.164,3.463Z" transform="translate(13.166 8.678)" fill="#fff"/>
    <path id="Path_4073" data-name="Path 4073" d="M59.544,56.255c.388-2.816-3.587-5.135-6.574-5.378-1.424-.114-2.9.1-4.255-.368-2.925-1.035-4.089-4.793-6.942-6-2.133-.9-4.592-.1-6.657.942s-4.141,2.35-6.424,2.5c-2.008.129-4.193-.616-5.948.368-1.31.73-2,2.236-3.2,3.132a7.652,7.652,0,0,1-4.188,1.134,12.209,12.209,0,0,0-4.317.7,3.417,3.417,0,0,0-2.164,3.463Z" transform="translate(286.796 -14.123)" fill="#fff"/>
    <path id="Path_4072" data-name="Path 4072" d="M59.544,56.255c.388-2.816-3.587-5.135-6.574-5.378-1.424-.114-2.9.1-4.255-.368-2.925-1.035-4.089-4.793-6.942-6-2.133-.9-4.592-.1-6.657.942s-4.141,2.35-6.424,2.5c-2.008.129-4.193-.616-5.948.368-1.31.73-2,2.236-3.2,3.132a7.652,7.652,0,0,1-4.188,1.134,12.209,12.209,0,0,0-4.317.7,3.417,3.417,0,0,0-2.164,3.463Z" transform="translate(346.425 -36.493)" fill="#fff"/>
    <path id="Path_3118" data-name="Path 3118" d="M87.318,24.447c.344-2.458-3.126-4.48-5.736-4.692a14.755,14.755,0,0,1-3.714-.317c-2.551-.892-3.575-4.189-6.059-5.24-1.863-.786-4.011-.086-5.815.826s-3.588,2.048-5.6,2.181c-1.751.112-3.661-.542-5.194.317-1.143.661-1.744,1.982-2.8,2.736a6.707,6.707,0,0,1-3.654.991,10.19,10.19,0,0,0-3.773.615,2.977,2.977,0,0,0-1.883,3.026Z" transform="translate(117.728 -13.857)" fill="#fff"/>
    <path id="Path_3119" data-name="Path 3119" d="M87.318,24.447c.344-2.458-3.126-4.48-5.736-4.692a14.755,14.755,0,0,1-3.714-.317c-2.551-.892-3.575-4.189-6.059-5.24-1.863-.786-4.011-.086-5.815.826s-3.588,2.048-5.6,2.181c-1.751.112-3.661-.542-5.194.317-1.143.661-1.744,1.982-2.8,2.736a6.707,6.707,0,0,1-3.654.991,10.19,10.19,0,0,0-3.773.615,2.977,2.977,0,0,0-1.883,3.026Z" transform="translate(90.655 23.256)" fill="#fff"/>
    <path id="Path_4068" data-name="Path 4068" d="M73.568,59.611c.5-3.595-4.579-6.555-8.392-6.866-1.817-.145-3.707.132-5.432-.469-3.733-1.322-5.22-6.119-8.861-7.659-2.722-1.143-5.861-.126-8.5,1.2s-5.286,3-8.2,3.192c-2.564.165-5.352-.786-7.592.469-1.672.932-2.551,2.855-4.09,4a9.768,9.768,0,0,1-5.346,1.447,15.585,15.585,0,0,0-5.511.9c-1.7.78-3.112,2.584-2.762,4.421Z" transform="translate(213.099 -28.335)" fill="#fff"/>
  </g>
</svg>
