<svg xmlns="http://www.w3.org/2000/svg" xmlns:xlink="http://www.w3.org/1999/xlink" width="62.607" height="62.607" viewBox="0 0 62.607 62.607">
  <defs>
    <clipPath id="clip-path">
      <circle id="Ellipse_10" data-name="Ellipse 10" cx="31.304" cy="31.304" r="31.304" transform="translate(232.994 590.994)" fill="#fff"/>
    </clipPath>
  </defs>
  <g id="Facebook" transform="translate(-356.772 -854.999)">
    <circle id="Ellipse_14" data-name="Ellipse 14" cx="28.5" cy="28.5" r="28.5" transform="translate(358.908 858.174)" fill="#fff"/>
    <g id="Facebook-2" data-name="Facebook" transform="translate(123.778 264.005)" clip-path="url(#clip-path)">
      <path id="facebook-3" data-name="facebook" d="M31.956,53.354h7.021V36.362H43.66l.62-5.855h-5.3l.007-2.932c0-1.526.146-2.345,2.336-2.345h2.927V19.375H39.562c-5.627,0-7.607,2.841-7.607,7.617v3.516H28.448v5.856h3.507ZM36.364,67.6A31.231,31.231,0,1,1,67.6,36.364,31.232,31.232,0,0,1,36.364,67.6Z" transform="translate(228.005 586.005)" fill="#3a589b"/>
    </g>
  </g>
</svg>
