<svg xmlns="http://www.w3.org/2000/svg" width="62.607" height="62.607" viewBox="0 0 62.607 62.607">
  <g id="gmail" transform="translate(-327 -781)">
    <circle id="Ellipse_11" data-name="Ellipse 11" cx="31.304" cy="31.304" r="31.304" transform="translate(327 781)" fill="#c82323"/>
    <path id="gmail-2" data-name="gmail" d="M37.241,18.31q-8,0-16.005,0c0,2.213,0,4.426,0,6.638q4.635,0,9.269,0A7.99,7.99,0,0,1,27.1,30.2a9.722,9.722,0,0,1-3.745,1.479,11.1,11.1,0,0,1-4.059-.013,9.991,9.991,0,0,1-3.787-1.635,10.568,10.568,0,0,1-3.9-5.223,10.3,10.3,0,0,1,0-6.623,10.554,10.554,0,0,1,2.469-4.01,9.994,9.994,0,0,1,10.073-2.618,9.218,9.218,0,0,1,3.667,2.154q1.568-1.56,3.13-3.127c.547-.561,1.123-1.1,1.653-1.673a16.461,16.461,0,0,0-5.473-3.391A17.041,17.041,0,0,0,6.04,13.861a16.985,16.985,0,0,0,0,15.273,17.136,17.136,0,0,0,4.621,5.679,16.929,16.929,0,0,0,6.18,3.116,18.176,18.176,0,0,0,8.7.094A15.362,15.362,0,0,0,32.5,34.4a15.446,15.446,0,0,0,4.3-7.061A19.984,19.984,0,0,0,37.241,18.31Z" transform="translate(337.409 790.807)" fill="#fff"/>
  </g>
</svg>
