<svg xmlns="http://www.w3.org/2000/svg" xmlns:xlink="http://www.w3.org/1999/xlink" width="42.811" height="38.973" viewBox="0 0 42.811 38.973">
  <defs>
    <filter id="home">
      <feOffset dy="1" input="SourceAlpha"/>
      <feGaussianBlur stdDeviation="2" result="blur"/>
      <feFlood flood-color="#5b618a" result="color"/>
      <feComposite operator="out" in="SourceGraphic" in2="blur"/>
      <feComposite operator="in" in="color"/>
      <feComposite operator="in" in2="SourceGraphic"/>
    </filter>
  </defs>
  <g data-type="innerShadowGroup">
    <g transform="matrix(1, 0, 0, 1, 0, 0)" filter="url(#home)">
      <path id="home-2" data-name="home" d="M23.156,3.9S10.44,14.877,3.334,20.821A2.141,2.141,0,0,0,2.6,22.4a2.054,2.054,0,0,0,2.056,2.056H8.767V38.844A2.054,2.054,0,0,0,10.822,40.9h6.167a2.055,2.055,0,0,0,2.056-2.056V30.622h8.222v8.222A2.055,2.055,0,0,0,29.322,40.9h6.167a2.054,2.054,0,0,0,2.056-2.056V24.456h4.111A2.054,2.054,0,0,0,43.711,22.4a2.014,2.014,0,0,0-.787-1.579C35.867,14.877,23.156,3.9,23.156,3.9Z" transform="translate(-1.75 -2.78)" fill="#fff"/>
    </g>
    <path id="home-3" data-name="home" d="M23.156,3.9S10.44,14.877,3.334,20.821A2.141,2.141,0,0,0,2.6,22.4a2.054,2.054,0,0,0,2.056,2.056H8.767V38.844A2.054,2.054,0,0,0,10.822,40.9h6.167a2.055,2.055,0,0,0,2.056-2.056V30.622h8.222v8.222A2.055,2.055,0,0,0,29.322,40.9h6.167a2.054,2.054,0,0,0,2.056-2.056V24.456h4.111A2.054,2.054,0,0,0,43.711,22.4a2.014,2.014,0,0,0-.787-1.579C35.867,14.877,23.156,3.9,23.156,3.9Z" transform="translate(-1.75 -2.777)" fill="none" stroke="#5b618a" stroke-width="1.7"/>
  </g>
</svg>
