<svg id="Lives_in_" data-name="Lives in " xmlns="http://www.w3.org/2000/svg" width="23.881" height="23.881" viewBox="0 0 23.881 23.881">
  <path id="Path_5365" data-name="Path 5365" d="M0,0H23.881V23.881H0Z" fill="none"/>
  <path id="Path_5366" data-name="Path 5366" d="M12.451,7.73V3.75H2.5V21.661H22.4V7.73ZM6.48,19.671H4.49v-1.99H6.48Zm0-3.98H4.49V13.7H6.48Zm0-3.98H4.49V9.72H6.48Zm0-3.98H4.49V5.74H6.48Zm3.98,11.941H8.47v-1.99h1.99Zm0-3.98H8.47V13.7h1.99Zm0-3.98H8.47V9.72h1.99Zm0-3.98H8.47V5.74h1.99Zm9.951,11.941h-7.96v-1.99h1.99v-1.99h-1.99V13.7h1.99V11.71h-1.99V9.72h7.96Zm-1.99-7.96h-1.99V13.7h1.99Zm0,3.98h-1.99v1.99h1.99Z" transform="translate(-0.51 -0.765)" fill="#5b618a"/>
</svg>
