<svg xmlns="http://www.w3.org/2000/svg" width="22.518" height="22.518" viewBox="0 0 22.518 22.518">
  <path id="Location" d="M12.8,8.706A4.094,4.094,0,1,0,16.895,12.8,4.093,4.093,0,0,0,12.8,8.706Zm9.15,3.071A9.206,9.206,0,0,0,13.824,3.65V1.542H11.777V3.65A9.206,9.206,0,0,0,3.65,11.777H1.542v2.047H3.65a9.206,9.206,0,0,0,8.127,8.127V24.06h2.047V21.951a9.206,9.206,0,0,0,8.127-8.127H24.06V11.777H21.951ZM12.8,19.965A7.165,7.165,0,1,1,19.965,12.8,7.16,7.16,0,0,1,12.8,19.965Z" transform="translate(-1.542 -1.542)" fill="#5b618a"/>
</svg>
