<svg xmlns="http://www.w3.org/2000/svg" width="20.004" height="20" viewBox="0 0 20.004 20">
  <g id="Posts" transform="translate(-5 -8.333)">
    <path id="Path_5334" data-name="Path 5334" d="M22.5,26.108H7.5V10.833h15l.594-2.5H7.5a2.507,2.507,0,0,0-2.5,2.5v15a2.507,2.507,0,0,0,2.5,2.5h15a2.507,2.507,0,0,0,2.5-2.5v-15a2.809,2.809,0,0,0-.4-1.645,2.988,2.988,0,0,0-1.5-.855l-.594,2.5Z" fill="#5b618a"/>
    <rect id="Rectangle_509" data-name="Rectangle 509" width="10" height="2.5" transform="translate(10 13.333)" fill="#5b618a"/>
    <path id="Path_5336" data-name="Path 5336" d="M11.667,20v2.5h10V20h-10Z" transform="translate(-1.667 -2.917)" fill="#5b618a"/>
    <rect id="Rectangle_510" data-name="Rectangle 510" width="10" height="2.5" transform="translate(10 20.833)" fill="#5b618a"/>
  </g>
</svg>
