<svg id="Tag" xmlns="http://www.w3.org/2000/svg" width="39.856" height="32.656" viewBox="0 0 39.856 32.656">
  <path id="Exclusion_1" data-name="Exclusion 1" d="M-12972.471-3560.068h-24.576c-2.26,0-4.1-1.547-4.1-3.449v-13.59h3.295v-5.788h5.576v-4.777h19.8c2.258,0,4.095,1.547,4.095,3.449v20.706C-12968.376-3561.615-12970.213-3560.068-12972.471-3560.068Zm-12.288-20.954a8.629,8.629,0,0,0-8.62,8.617,8.63,8.63,0,0,0,8.62,8.62h4.307v-1.726h-4.307a6.987,6.987,0,0,1-6.895-6.894,6.985,6.985,0,0,1,6.895-6.891,6.984,6.984,0,0,1,6.892,6.891v1.233a1.4,1.4,0,0,1-1.292,1.354,1.4,1.4,0,0,1-1.293-1.354v-1.233a4.312,4.312,0,0,0-4.307-4.307,4.314,4.314,0,0,0-4.311,4.307,4.315,4.315,0,0,0,4.311,4.31,4.319,4.319,0,0,0,3.051-1.266,3.189,3.189,0,0,0,2.549,1.266,3.015,3.015,0,0,0,3.018-3.077v-1.233A8.627,8.627,0,0,0-12984.759-3581.022Zm0,11.2a2.59,2.59,0,0,1-2.587-2.587,2.588,2.588,0,0,1,2.587-2.584,2.587,2.587,0,0,1,2.584,2.584A2.589,2.589,0,0,1-12984.759-3569.817Z" transform="translate(13008.232 3592.724)" fill="#5b618a"/>
  <path id="Path_5377" data-name="Path 5377" d="M5.316,5.211V0H8.861V5.211h5.316V8.685H8.861V13.9H5.316V8.685H0V5.211Z" transform="translate(0 0)" fill="#5b618a"/>
</svg>
