<svg xmlns="http://www.w3.org/2000/svg" width="393" height="203.842" viewBox="0 0 393 203.842">
  <g id="Clouds" transform="translate(-0.499 -0.5)">
    <path id="gray_cloud" data-name="gray cloud" d="M178.322,189.729a29.8,29.8,0,0,1-26.241.094,28.8,28.8,0,0,1-15.793-20.56l0-.034a35.207,35.207,0,0,1-17.2-11.528,40.837,40.837,0,0,1-32.648,2.8l-1.311-.443a40.093,40.093,0,0,1-40.105,18.07A39.557,39.557,0,0,1,12.534,148.8,29.771,29.771,0,0,1,0,146.23V0H393V163.232a39.777,39.777,0,0,1-19.686,13.254,40.314,40.314,0,0,1-42.3-12.4,29.8,29.8,0,0,1-26.241.094,28.816,28.816,0,0,1-15.791-20.561l0-.033a35.614,35.614,0,0,1-5.593-2.224,40.027,40.027,0,0,1-33.432,27.114l-1.376.165a39.216,39.216,0,0,1-27.958,33.489,40.381,40.381,0,0,1-42.3-12.4Z" transform="translate(0.499 0.5)" fill="#707070" opacity="0.08"/>
    <path id="pink_cloud" data-name="pink cloud" d="M178.322,171a29.843,29.843,0,0,1-26.241.094,28.76,28.76,0,0,1-15.793-20.525l0-.034a35.21,35.21,0,0,1-17.2-11.508,40.9,40.9,0,0,1-32.648,2.794l-1.311-.442A40.119,40.119,0,0,1,45.02,159.417a39.532,39.532,0,0,1-32.485-29.279A29.815,29.815,0,0,1,0,127.574V0H393V144.547a39.78,39.78,0,0,1-19.686,13.231,40.357,40.357,0,0,1-42.3-12.379,29.848,29.848,0,0,1-26.241.094,28.774,28.774,0,0,1-15.791-20.526l0-.033a35.649,35.649,0,0,1-5.593-2.22,40.011,40.011,0,0,1-33.432,27.068l-1.376.165a39.167,39.167,0,0,1-27.958,33.432A40.431,40.431,0,0,1,178.322,171Z" transform="translate(0.499 0.5)" fill="#e8deeb"/>
  </g>
</svg>
