<svg xmlns="http://www.w3.org/2000/svg" xmlns:xlink="http://www.w3.org/1999/xlink" width="38.398" height="37.265" viewBox="0 0 38.398 37.265">
  <defs>
    <filter id="Trip">
      <feOffset dy="1" input="SourceAlpha"/>
      <feGaussianBlur stdDeviation="2" result="blur"/>
      <feFlood flood-color="#5b618a" result="color"/>
      <feComposite operator="out" in="SourceGraphic" in2="blur"/>
      <feComposite operator="in" in="color"/>
      <feComposite operator="in" in2="SourceGraphic"/>
    </filter>
  </defs>
  <g data-type="innerShadowGroup">
    <g transform="matrix(1, 0, 0, 1, 0, 0)" filter="url(#Trip)">
      <path id="Trip-2" data-name="Trip" d="M7370.025-539.937l4.36,1.5,7.5,7.076,18.154-5.789,4,1.715-12.936,7.647-2.788,2.93,7.79,7.576,7.148-1.5,2.145,2.215-7.434,3.788-4.432,8-2.429-1.93,1.572-7.719-8.362-6.5-2.43,2.573-7,12.936-2.144-3.717,5.074-18.654-6.933-6.861a28.97,28.97,0,0,1-1.858-4.717C7368.81-540.687,7370.025-539.937,7370.025-539.937Z" transform="translate(-7368.25 540.9)" fill="#fff"/>
    </g>
    <path id="Trip-3" data-name="Trip" d="M7370.025-539.937l4.36,1.5,7.5,7.076,18.154-5.789,4,1.715-12.936,7.647-2.788,2.93,7.79,7.576,7.148-1.5,2.145,2.215-7.434,3.788-4.432,8-2.429-1.93,1.572-7.719-8.362-6.5-2.43,2.573-7,12.936-2.144-3.717,5.074-18.654-6.933-6.861a28.97,28.97,0,0,1-1.858-4.717C7368.81-540.687,7370.025-539.937,7370.025-539.937Z" transform="translate(-7368.25 540.899)" fill="none" stroke="#5b618a" stroke-width="1.5"/>
  </g>
</svg>
