<svg width="24" height="23" viewBox="0 0 24 23" fill="none" xmlns="http://www.w3.org/2000/svg">
<path d="M16.2256 10.5V3.5L12.3649 0L8.50416 3.5V5.83333H0.782715V22.1667H23.9471V10.5H16.2256ZM5.93035 19.8333H3.35653V17.5H5.93035V19.8333ZM5.93035 15.1667H3.35653V12.8333H5.93035V15.1667ZM5.93035 10.5H3.35653V8.16667H5.93035V10.5ZM13.6518 19.8333H11.078V17.5H13.6518V19.8333ZM13.6518 15.1667H11.078V12.8333H13.6518V15.1667ZM13.6518 10.5H11.078V8.16667H13.6518V10.5ZM13.6518 5.83333H11.078V3.5H13.6518V5.83333ZM21.3732 19.8333H18.7994V17.5H21.3732V19.8333ZM21.3732 15.1667H18.7994V12.8333H21.3732V15.1667Z" fill="#5B618A"/>
</svg>
