<svg xmlns="http://www.w3.org/2000/svg" xmlns:xlink="http://www.w3.org/1999/xlink" width="17" height="17" viewBox="0 0 17 17">
  <defs>
    <clipPath id="clip-path">
      <rect id="Rectangle_593" data-name="Rectangle 593" width="17" height="17" fill="#fff" stroke="#707070" stroke-width="1"/>
    </clipPath>
  </defs>
  <g id="Attraction" clip-path="url(#clip-path)">
    <g id="attractions_black_24dp">
      <g id="Group_671" data-name="Group 671">
        <rect id="Rectangle_594" data-name="Rectangle 594" width="17" height="17" fill="none"/>
      </g>
      <g id="Group_672" data-name="Group 672" transform="translate(1.341 0.478)">
        <path id="Path_7562" data-name="Path 7562" d="M11.021,16.77a1.615,1.615,0,0,1,1.259-.6,1.6,1.6,0,0,1,1.251.6,5.591,5.591,0,0,0,.9-.289L13.292,13.93a2.836,2.836,0,0,1-2.054-.016l-1.147,2.559A4.829,4.829,0,0,0,11.021,16.77ZM6.786,9.751a5.663,5.663,0,0,0-.2,1.484,5.83,5.83,0,0,0,.265,1.725,1.606,1.606,0,0,1,1.34,2.23,6.33,6.33,0,0,0,.7.61l1.219-2.719h0a2.7,2.7,0,0,1-.6-1.709,2.776,2.776,0,0,1,5.551,0,2.7,2.7,0,0,1-.626,1.733l1.2,2.687a6,6,0,0,0,.722-.634,1.6,1.6,0,0,1,1.316-2.2,5.636,5.636,0,0,0,.273-1.733,5.724,5.724,0,0,0-.2-1.492,1.578,1.578,0,0,1-1.283-.8,1.6,1.6,0,0,1-.024-1.564,5.685,5.685,0,0,0-2.759-1.644,1.6,1.6,0,0,1-1.4.818,1.622,1.622,0,0,1-1.4-.81A5.658,5.658,0,0,0,8.126,7.36a1.612,1.612,0,0,1-1.34,2.39ZM5.743,9.414A1.6,1.6,0,0,1,7.331,6.662a6.843,6.843,0,0,1,3.353-1.941,1.607,1.607,0,0,1,3.185,0,6.748,6.748,0,0,1,3.353,1.941A1.6,1.6,0,0,1,18.81,9.414a6.852,6.852,0,0,1,0,3.882,1.6,1.6,0,0,1-1.588,2.751,6.589,6.589,0,0,1-1.075.922l1.075,2.406H15.73l-.778-1.741a7.022,7.022,0,0,1-1.075.353,1.607,1.607,0,0,1-3.185,0,7.168,7.168,0,0,1-1.107-.369L8.8,19.377H7.291l1.091-2.431a7,7,0,0,1-1.043-.9,1.6,1.6,0,0,1-1.6-2.751,6.851,6.851,0,0,1,0-3.882Z" transform="translate(-5.118 -3.333)" fill="#5b618a"/>
      </g>
    </g>
  </g>
</svg>
