<svg id="Temp" xmlns="http://www.w3.org/2000/svg" width="23" height="21.376" viewBox="0 0 23 21.376">
  <g id="wb_sunny_black_24dp" transform="translate(10.473 0.334)">
    <path id="Path_7551" data-name="Path 7551" d="M0,0H12.527V12.527H0Z" fill="none"/>
    <path id="Path_7552" data-name="Path 7552" d="M5.423,3.568l-.94-.934-.736.736.934.934ZM3.983,6.523H2.417V7.566H3.983Zm4.7-5.193H7.636v1.54H8.68ZM12.569,3.37l-.736-.736-.934.934.736.736Zm-1.675,7.151.934.94.736-.736-.94-.934-.731.731Zm1.441-4V7.566H13.9V6.523ZM8.158,3.913A3.132,3.132,0,1,0,11.29,7.044,3.134,3.134,0,0,0,8.158,3.913ZM7.636,12.76H8.68V11.22H7.636ZM3.748,10.719l.736.736.934-.94-.736-.736Z" transform="translate(-1.895 -1.042)" fill="#5b618a"/>
  </g>
  <g id="filter_drama_black_24dp">
    <path id="Path_7549" data-name="Path 7549" d="M0,0H20.048V21.376H0Z" fill="none"/>
    <path id="Path_7550" data-name="Path 7550" d="M16.164,14.973a8.342,8.342,0,0,0-.393-1.458,6.266,6.266,0,0,0-5.746-4.347A6.211,6.211,0,0,0,4.477,13.05C1.963,13.358,0,15.8,0,18.779c0,3.182,2.247,5.767,5.012,5.767H15.871c2.306,0,4.177-2.153,4.177-4.806A4.554,4.554,0,0,0,16.164,14.973Z" transform="translate(0 -6.169)" fill="#5b618a"/>
  </g>
</svg>
