<svg xmlns="http://www.w3.org/2000/svg" width="118.903" height="119.116" viewBox="0 0 118.903 119.116">
  <g id="Earth" transform="matrix(0.999, -0.035, 0.035, 0.999, -79.196, -79.175)">
    <path id="Path_7484" data-name="Path 7484" d="M186.007,145.854a28.662,28.662,0,0,1-1.065-4.03,2.672,2.672,0,0,0-1.213-1.8,10.8,10.8,0,0,0-1.448-.327c-1.706-.513-2.17-2.889-3.785-3.628a5.5,5.5,0,0,0-1.634-.327,8.479,8.479,0,0,1-5.752-2.7,10.442,10.442,0,0,0-1.33-1.634,1.593,1.593,0,0,0-1.961-.183c.454.912.9,1.824,1.35,2.726a7.094,7.094,0,0,0,1.513,2.268,2.459,2.459,0,0,0,2.543.549,1.673,1.673,0,0,1,.856-.3.921.921,0,0,1,.556.356c1.177,1.307.794,3.461-.356,4.795a10.932,10.932,0,0,1-4.465,2.66,3.475,3.475,0,0,1-1.824.356c-1.131-.212-1.732-1.441-2.059-2.543-.739-2.445-1.095-5.1-2.615-7.158a9.028,9.028,0,0,1-1.376-2,11.312,11.312,0,0,0-.729-2.5c-.49-.722-1.595-1.193-1.67-2.1a1.648,1.648,0,0,1,1.069-1.477c.585-.275,1.239-.363,1.84-.611.239-.1.5-.271.51-.526,0-.382-.529-.539-.654-.9s.265-.775.435-1.167c.376-.892-.556-1.794-1.458-2.16s-1.977-.628-2.4-1.5a5.109,5.109,0,0,1-.291-1.307,2.858,2.858,0,0,0-2.134-2.35,1.884,1.884,0,0,0-2.18,1.922,7.407,7.407,0,0,0,.814,1.634c.248.549.18,1.405-.4,1.585-.958.294-1.879-1.458-2.68-.856.327,1.121.654,2.242.98,3.373-1.255.637-2.762-.52-3.3-1.83s-.556-2.8-1.2-4.059-2.36-2.2-3.455-1.307c-.052,1.634,2.088,2.288,3.036,3.6a2.2,2.2,0,0,1-.428,3.089c-1.013.6-2.6-.444-2.216-1.549.137-.382.458-.7.494-1.111.036-.51-.392-.922-.784-1.248-.611-.52-1.222-1.03-1.83-1.543a3.922,3.922,0,0,0-1.307-.82c-1.258-.363-2.517.654-3.183,1.778s-1.036,2.451-1.961,3.393a3.586,3.586,0,0,1-5.069.016,2.993,2.993,0,0,1,1.242-4.634c.693-.193,1.569-.173,1.932-.784.654-1.085-1.183-2.471-.556-3.566.484-.837,1.758-.454,2.69-.739s1.438-1.213,1.987-2.013,1.386-1.595,2.334-1.386a2.916,2.916,0,0,1,.1-1.66,1.023,1.023,0,0,1,1.4-.51,1.686,1.686,0,0,0,.9,2.216,4.953,4.953,0,0,0,2.654.193c.9-.1,2.013-.438,2.085-1.333.029-.291-.082-.6.029-.873.392-1.069,2.36.4,3.118-.458.435-.444-.046-1.239-.654-1.386a7.057,7.057,0,0,0-1.85.092c-.618.016-1.376-.3-1.405-.918s.654-1.049.729-1.634c.121-1.023-1.611-1.288-2.222-.458s-.392,1.961-.209,2.981.281,2.206-.467,2.919c-.327.484-1.147.226-1.422-.284a4.245,4.245,0,0,1-.265-1.7c-.046-.572-.3-1.242-.863-1.4a3.1,3.1,0,0,0-1.213.137c-1.588.19-2.69-1.86-2.19-3.373s1.932-2.5,3.327-3.268c1.023-.565,2.288-1.095,3.3-.52.474.265.8.719,1.265.98a5.537,5.537,0,0,0,2.719.327,6.35,6.35,0,0,1,3.964,1.543c.409.373.791.98.474,1.438s-1.34.575-1.167,1.131a1.961,1.961,0,0,0,2.477-1.595,1.66,1.66,0,0,1,.958,1.35,2.95,2.95,0,0,1,4.331.356,3.824,3.824,0,0,0,.8,1.03c.363.248,1,.118,1.049-.31a.853.853,0,0,0-.072-.4c-.219-.618-.448-1.229-.654-1.84.85-.458,1.85.255,2.425,1.02,2.134,2.853,3.654,1.141,6.664,1.6,2.033.31,2.925,1.615,4.072,3.19,3.52,4.85,8.171,8.824,11.367,13.89.327.529.654,1.069.938,1.615-.052-.137-.1-.275-.154-.409a56.24,56.24,0,0,0-4.648-9.452c-.392-.654-.794-1.268-1.206-1.889-.255-.382-.52-.775-.781-1.147-.327-.494-.693-.98-1.049-1.441-.284-.382-.565-.755-.856-1.121-.2-.255-.412-.51-.621-.765s-.454-.575-.712-.856l-.765-.886a2.66,2.66,0,0,0-.245-.271c-.265-.327-.546-.611-.83-.912a.219.219,0,0,0-.082-.092c-.072-.082-.154-.163-.235-.248-.229-.255-.474-.5-.712-.745-.392-.4-.794-.8-1.2-1.186-.327-.327-.683-.654-1.039-.98s-.621-.565-.938-.84-.621-.536-.941-.8q-.574-.49-1.173-.98h0c-1.1-.882-2.242-1.722-3.409-2.507-.291-.2-.575-.392-.866-.582s-.592-.382-.886-.565-.592-.373-.892-.546-.6-.366-.9-.539c-.245-.147-.484-.284-.729-.412a3.9,3.9,0,0,0-.376-.209c-.516-.291-1.046-.572-1.575-.837-.265-.137-.529-.275-.8-.4-.327-.173-.686-.327-1.033-.494a.953.953,0,0,0-.154-.072c-.327-.147-.621-.291-.938-.428-.448-.193-.9-.382-1.34-.565-.51-.209-1.023-.418-1.543-.611-.572-.219-1.147-.428-1.729-.618s-1.177-.392-1.768-.575-1.186-.346-1.788-.51q-1.778-.48-3.6-.85a.435.435,0,0,1-.062,0c-.464-.092-.931-.183-1.4-.255a.356.356,0,0,0-.091-.02c-.2-.036-.409-.072-.618-.1-.866-.144-1.742-.261-2.615-.363a3.129,3.129,0,0,0-.327-.036c-.255-.036-.51-.056-.775-.082-.585-.056-1.167-.1-1.762-.137s-1.229-.072-1.85-.092-1.307-.036-1.941-.036c-1.713,0-3.409.072-5.086.226-.4.029-.794.065-1.186.111s-.82.092-1.229.147-.82.108-1.222.173-.811.127-1.219.2c-.346.056-.7.118-1.049.193-.856.163-1.706.343-2.543.546-.392.092-.784.19-1.177.3s-.784.209-1.167.327c-.654.183-1.275.386-1.905.585h0c-.51.173-1.03.346-1.53.52a.072.072,0,0,0-.036,0c-.52.183-1.023.376-1.533.575l-.082.029c-.464.18-.928.373-1.386.565-.575.235-1.141.49-1.7.745q-.711.328-1.392.654c-.454.216-.98.49-1.467.745l-.056.029c-.464.245-.931.5-1.386.765s-.938.539-1.4.83h0c-.438.265-.866.529-1.307.8-.163.1-.327.209-.484.327-.458.291-.892.592-1.34.9-.546.373-1.075.765-1.6,1.157-.464.346-.922.7-1.366,1.059a57.013,57.013,0,0,0-7.207,6.8c-.775.86-1.5,1.732-2.216,2.615-.6.765-1.186,1.539-1.742,2.34q-.752,1.049-1.448,2.131.7-1.082,1.448-2.131c.147-.016.294-.036.438-.046a6.755,6.755,0,0,0,2.425-.389A13.856,13.856,0,0,0,91.6,108.35c1.585-1.131,4.183-1.34,4.612-3.236a12.837,12.837,0,0,1,.209-1.941c.448-1.141,1.961-1.307,3.19-1.288.52,0,1.131.075,1.366.529a1.307,1.307,0,0,1-.052,1.059,9.906,9.906,0,0,1-4.183,5.138c-1.588.98-3.657,1.716-4.1,3.52.219.611,1.333.565,1.422,1.2.065.51-.592.775-.827,1.232-.346.654.444,1.474,1.2,1.438a3.322,3.322,0,0,0,1.941-1.092c1.657-1.543,3.4-3.2,4-5.389.255-.9.346-1.961,1.075-2.559a1.783,1.783,0,0,1,2.709.866c.719-.4,1.84-.7,2.213.046a3.887,3.887,0,0,1,.157.856c.235,1.167,1.83,1.693,1.994,2.87.193,1.36-1.549,2.062-2.906,2.271q-1.847.284-3.693.582a3.4,3.4,0,0,0-1.53.494,1.2,1.2,0,0,0-.458,1.432,3.461,3.461,0,0,0,.654.654,1.965,1.965,0,0,1-1.258,3.174c-.494.02-.98-.163-1.467-.183-1.461-.062-2.615,1.222-3.311,2.507s-1.213,2.752-2.379,3.628c-1.876,1.412-5.112,1.085-6.024,3.268a5.205,5.205,0,0,0-.029,2.8,3.777,3.777,0,0,1-.327,2.742c-.539.781-1.941.931-2.34.075a2.1,2.1,0,0,1-.056-1.213c.219-1.35.428-2.7.654-4.046a3.973,3.973,0,0,0-.3-2.941c-.83-1.15-2.69-1.039-3.765-.121a6.587,6.587,0,0,0-1.814,3.739,16.246,16.246,0,0,1-1.039,3.628h0c-.19,1.131-.346,2.288-.464,3.435s-.2,2.363-.245,3.566a5.508,5.508,0,0,0,.464-.438c.575-.592,1.732-3.1,2.772-1.869a.931.931,0,0,1,0,1.141c-.327.409-.954.5-1.2.948-.3.529.121,1.183.611,1.53a5.193,5.193,0,0,1,1.441,1.075c.654.958.026,2.409.673,3.383.556.84,1.742.892,2.752,1l.346.056a4.587,4.587,0,0,1,3.958-4.249c3.772-.856,8.733,2.271,10.854,5.115,2.37,3.18,3.491,7.684,7.118,9.279,2.615,1.137,6.292.729,7.556,3.268,1.131,2.288-.837,4.84-1.137,7.367-.193,1.667.356,3.324.484,4.994s-.376,3.628-1.9,4.331c-.85.382-1.915.327-2.615.98-1.213,1.147-.219,3.517-1.432,4.667a6.178,6.178,0,0,1-1.539.811c-2.726,1.376-2.654,5.386-1.386,8.171.046.1.092.19.134.291a57.611,57.611,0,0,0,56.548,1.4h0a57.4,57.4,0,0,0,5.1-3.072,56.508,56.508,0,0,0,7.154-5.687A55.479,55.479,0,0,0,177.572,181c.98-1.115,1.879-2.288,2.752-3.455.448-.611.886-1.222,1.307-1.85a57.332,57.332,0,0,0,9.364-24.512q.26-1.961.4-3.922a3.3,3.3,0,0,1-2.314,1.029A3.685,3.685,0,0,1,186.007,145.854Z" transform="translate(-0.195)" fill="#5b618a"/>
    <path id="Path_7485" data-name="Path 7485" d="M195.966,103.468c-1.141.683-1.749,1.961-2.615,2.968s-2.461,1.706-3.5.876a2.4,2.4,0,0,1-.784-1.693,4.36,4.36,0,0,1,.621-2.641c.5-.807,1.255-1.445,1.673-2.288a1.868,1.868,0,0,0-.526-2.494c-.464-.216-1.052-.131-1.464-.435-.742-.549-.212-1.84.654-2.167a6.309,6.309,0,0,1,2.742,0c3.337.212,5.795-1.961,8.3-3.788,1.961-1.412,6.112-3.082,8.37-1.634.9.575,1.255,2.056.405,2.706-.379.291-.905.356-1.258.677-.425.386-.484,1.023-.729,1.543-.631,1.35-2.455,1.84-3.04,3.213-.353.827-.193,1.853-.739,2.569a3.146,3.146,0,0,1-1.873.928l-4.37,1.007A6.537,6.537,0,0,0,195.966,103.468Z" transform="translate(-75.981 -2.501)" fill="#263238"/>
    <path id="Path_7486" data-name="Path 7486" d="M255.129,248.524c-1.445,2.177-1.706,4.9-2.108,7.475s-1.088,5.327-3.072,7.027-5.625,1.6-6.7-.775c-.595-1.288-.291-2.807-.614-4.19-.418-1.8-1.85-3.187-2.53-4.9a13.684,13.684,0,0,1-.631-4.661c-.258-8.605-2.356-17.59-8.217-23.9a5.706,5.706,0,0,0-2.559-1.8,3.268,3.268,0,0,0-3.363,1.16,12.856,12.856,0,0,1-1.288,1.945c-1.252,1.144-3.438.327-4.275-1.15s-.722-3.285-.582-4.974l.52-6.285a5.266,5.266,0,0,1,.935-3.1c1.023-1.183,2.857-1.239,4.108-2.177,1.634-1.229,1.86-3.572,2.9-5.344s4.272-2.52,4.752-.526c3.425-7.331,10.995,3.562,15.5,2.742,1.307-.235,2.585-.866,3.9-.68,2.324.327,3.523,2.886,4.314,5.092l3.922,11c.5,1.4,1.147,2.941,2.53,3.487,1.062.412,2.288.1,3.36.487,2.827,1.026,1.909,5.471-.366,7.439s-5.465,3.21-6.537,6.014c-.814,2.111-.167,4.576-1.043,6.677C257.345,246.092,256.024,247.174,255.129,248.524Z" transform="translate(-96.222 -76.667)" fill="#263238"/>
    <path id="Path_7487" data-name="Path 7487" d="M346.906,340.389c-.928.131-2.023-.327-2.729.288a2.907,2.907,0,0,0-.654,1.474,3.151,3.151,0,0,1-1.307,1.8,1.981,1.981,0,0,1-2.147-.039,1.454,1.454,0,0,1-.3-2.01,9.773,9.773,0,0,1,.8-.654c1.232-1.164.389-3.324,1.324-4.706.552-.817,1.422-1.634,2.03-2.474.467-.634.637-1.137,1.5-1.307C349.158,332.016,350.854,339.837,346.906,340.389Z" transform="translate(-177.275 -166.143)" fill="#263238"/>
    <path id="Path_7488" data-name="Path 7488" d="M83.7,280.672c-.183-1.634.363-3.3.392-4.968,0-1.147-.065-2.36-.082-3.517a15.764,15.764,0,0,1-2.941-.412.873.873,0,0,1-.536-.271,1.052,1.052,0,0,1-.118-.611c-.075-1.307-1.324-2.151-2.445-2.8a9.451,9.451,0,0,0-1.778-.876v.4A57.4,57.4,0,0,0,79.854,285.9a55.254,55.254,0,0,0,3.52,7.55c.565,1.046,1.183,2.075,1.83,3.089.8,1.248,1.634,2.471,2.546,3.647.837,1.128,1.729,2.232,2.67,3.288a56.662,56.662,0,0,0,4.1,4.206q1.9,1.778,3.964,3.373C95.336,302.609,92.375,293.994,87,286.81,85.583,284.921,83.972,283.006,83.7,280.672Z" transform="translate(-0.027 -122.059)" fill="#5b618a"/>
    <path id="Path_7489" data-name="Path 7489" d="M76.17,258.88c0,.346-.02.693-.02,1.039v0C76.15,259.573,76.163,259.226,76.17,258.88Z" transform="translate(0 -116.445)" fill="#263238"/>
    <g id="Group_475" data-name="Group 475" transform="translate(101.679 191.31)" opacity="0.6">
      <path id="Path_7490" data-name="Path 7490" d="M154.26,408.42c.484.327.98.654,1.471.958.346.219.693.428,1.046.637-.353-.209-.7-.418-1.046-.637C155.234,409.067,154.744,408.75,154.26,408.42Z" transform="translate(-154.26 -408.42)" fill="#263238"/>
    </g>
    <path id="Path_7491" data-name="Path 7491" d="M265.555,231.907c2.288-1.961,3.193-6.412.366-7.439-1.069-.389-2.288-.075-3.36-.487-1.383-.536-2.03-2.088-2.53-3.487l-3.922-11c-.791-2.206-1.99-4.768-4.314-5.092-1.307-.186-2.6.445-3.9.68-4.5.82-12.07-10.073-15.5-2.742-.48-1.994-3.719-1.245-4.752.526s-1.255,4.115-2.9,5.344c-1.252.938-3.085.98-4.108,2.177a5.3,5.3,0,0,0-.935,3.1l-.52,6.285c-.141,1.69-.255,3.5.582,4.974s3.023,2.288,4.275,1.15a12.233,12.233,0,0,0,1.288-1.945,3.268,3.268,0,0,1,3.363-1.16,5.706,5.706,0,0,1,2.559,1.8c5.86,6.308,7.958,15.292,8.217,23.9a13.683,13.683,0,0,0,.631,4.661c.68,1.716,2.111,3.1,2.53,4.9.327,1.383.02,2.9.614,4.19,1.092,2.373,4.733,2.474,6.716.775s2.673-4.445,3.072-7.027.654-5.3,2.108-7.475c.9-1.35,2.216-2.432,2.84-3.922.876-2.088.229-4.576,1.043-6.677C260.09,235.117,263.283,233.875,265.555,231.907Z" transform="translate(-96.222 -76.667)" fill="#dcd2eb"/>
    <g id="Group_476" data-name="Group 476" transform="translate(76.17 141.079)" opacity="0.6">
      <path id="Path_7492" data-name="Path 7492" d="M76.246,254.73h0c0,.108-.02.209-.02.327,0,.343,0,.693-.016,1.039,0-.346,0-.7.016-1.039C76.226,254.939,76.236,254.838,76.246,254.73Z" transform="translate(-76.21 -254.73)" fill="#263238"/>
    </g>
    <g id="Group_477" data-name="Group 477" transform="translate(76.163 144.318)" opacity="0.6">
      <path id="Path_7493" data-name="Path 7493" d="M76.19,264.64v.843h0C76.2,265.205,76.2,264.921,76.19,264.64Z" transform="translate(-76.19 -264.64)" fill="#263238"/>
    </g>
    <path id="Path_7494" data-name="Path 7494" d="M84.113,256.086l-.346-.056c-1.01-.111-2.2-.163-2.752-1-.654-.98,0-2.425-.673-3.383a5.341,5.341,0,0,0-1.441-1.075c-.494-.356-.912-1-.611-1.53.248-.448.886-.539,1.2-.948a.932.932,0,0,0,0-1.141c-1.039-1.229-2.2,1.278-2.772,1.869a5.507,5.507,0,0,1-.464.438h0c0,.108-.02.209-.02.327,0,.343,0,.693-.016,1.039s-.02.693-.02,1.039v1.686a9.452,9.452,0,0,1,1.778.876c1.121.654,2.37,1.5,2.445,2.8a1.052,1.052,0,0,0,.118.611.873.873,0,0,0,.536.271,15.764,15.764,0,0,0,2.941.412" transform="translate(-0.034 -108.189)" fill="#f0ecf5" opacity="0"/>
    <path id="Path_7495" data-name="Path 7495" d="M99.393,268.741c0,1.157.1,2.37.082,3.517-.029,1.67-.575,3.321-.392,4.968.265,2.334,1.886,4.249,3.3,6.125,5.38,7.19,8.341,15.8,11.485,24.238h0c.585.464,1.177.9,1.778,1.33q.709.513,1.438,1t1.471.958c.346.219.693.428,1.046.637-.042-.1-.088-.19-.134-.291-1.268-2.781-1.34-6.792,1.386-8.171a6.237,6.237,0,0,0,1.539-.811c1.213-1.15.219-3.52,1.432-4.667.683-.654,1.749-.592,2.615-.98,1.52-.7,2.013-2.654,1.9-4.331s-.677-3.327-.484-4.994c.3-2.526,2.268-5.089,1.137-7.367-1.265-2.543-4.958-2.134-7.556-3.268-3.628-1.595-4.749-6.1-7.118-9.279-2.121-2.843-7.082-5.971-10.854-5.115a4.6,4.6,0,0,0-3.958,4.249" transform="translate(-15.412 -118.612)" fill="#5b618a" opacity="0"/>
    <path id="Path_7496" data-name="Path 7496" d="M81.262,159.584c1.075-.918,2.941-1.03,3.765.121a3.977,3.977,0,0,1,.3,2.941c-.209,1.347-.418,2.7-.654,4.046a2.1,2.1,0,0,0,.056,1.213c.4.856,1.8.693,2.34-.075a3.727,3.727,0,0,0,.327-2.742,5.175,5.175,0,0,1,.029-2.8c.912-2.17,4.148-1.843,6.024-3.268,1.167-.876,1.686-2.343,2.379-3.628s1.85-2.569,3.311-2.507c.49.02.98.2,1.467.183a1.961,1.961,0,0,0,1.258-3.174,3.462,3.462,0,0,1-.654-.654,1.2,1.2,0,0,1,.458-1.432,3.4,3.4,0,0,1,1.53-.494q1.847-.3,3.693-.582c1.356-.209,3.1-.912,2.906-2.271-.163-1.177-1.758-1.7-1.994-2.87a3.887,3.887,0,0,0-.157-.856c-.373-.748-1.494-.448-2.213-.046a1.783,1.783,0,0,0-2.709-.866c-.729.6-.82,1.657-1.075,2.559-.6,2.19-2.343,3.847-4,5.389a3.332,3.332,0,0,1-1.941,1.092c-.755.036-1.549-.775-1.2-1.438.235-.458.892-.722.827-1.232-.088-.654-1.2-.592-1.422-1.2.438-1.8,2.507-2.553,4.1-3.52a9.906,9.906,0,0,0,4.183-5.138,1.307,1.307,0,0,0,.052-1.059c-.235-.454-.846-.529-1.366-.529-1.222-.016-2.742.147-3.19,1.288a13.115,13.115,0,0,0-.209,1.941c-.428,1.9-3.026,2.1-4.612,3.236a15.119,15.119,0,0,1-1.788,1.386,6.755,6.755,0,0,1-2.425.389,4.064,4.064,0,0,0-.438.046q-.752,1.049-1.448,2.131c-.467.722-.915,1.458-1.35,2.2A56.868,56.868,0,0,0,80.423,158.5q-.67,2.046-1.183,4.154t-.869,4.278a16.345,16.345,0,0,0,1.039-3.628A7.11,7.11,0,0,1,81.262,159.584Z" transform="translate(-1.494 -32.882)" fill="#f0ecf5" opacity="0"/>
    <path id="Path_7497" data-name="Path 7497" d="M204.035,100.8c.546-.716.386-1.742.739-2.569.585-1.373,2.409-1.863,3.04-3.213.245-.52.3-1.157.729-1.543.353-.327.879-.386,1.258-.677.85-.654.5-2.131-.405-2.706-2.258-1.445-6.416.226-8.37,1.634-2.507,1.814-4.965,4-8.3,3.788a6.57,6.57,0,0,0-2.742,0c-.863.327-1.392,1.634-.654,2.167.412.3,1,.219,1.464.435a1.855,1.855,0,0,1,.526,2.494,28.089,28.089,0,0,1-1.673,2.288,4.36,4.36,0,0,0-.621,2.641,2.4,2.4,0,0,0,.784,1.693c1.036.83,2.615.121,3.5-.876s1.487-2.288,2.615-2.968a6.537,6.537,0,0,1,1.873-.654l4.353-1.036A3.06,3.06,0,0,0,204.035,100.8Z" transform="translate(-75.952 -2.451)" fill="#dcd2eb"/>
    <g id="Group_478" data-name="Group 478" transform="translate(187.708 123.358)" opacity="0.6">
      <path id="Path_7498" data-name="Path 7498" d="M417.48,200.51q.412,1.095.775,2.2-.363-1.108-.775-2.2Z" transform="translate(-417.48 -200.51)" fill="#263238"/>
    </g>
    <path id="Path_7499" data-name="Path 7499" d="M304.226,167.144c0-.827-.029-1.634-.075-2.468s-.108-1.634-.19-2.445q-.093-.98-.229-1.961c-.091-.654-.19-1.363-.3-2.039a56.021,56.021,0,0,0-1.343-5.981q-.327-1.128-.686-2.236t-.775-2.2h0c-.291-.546-.6-1.085-.938-1.615-3.2-5.066-7.844-9.04-11.367-13.89-1.147-1.575-2.039-2.879-4.072-3.19-3.01-.464-4.53,1.249-6.664-1.6-.575-.765-1.575-1.477-2.425-1.02.219.611.448,1.222.654,1.84a.853.853,0,0,1,.072.4c-.046.428-.683.546-1.049.311a3.575,3.575,0,0,1-.8-1.03,2.95,2.95,0,0,0-4.331-.356,1.66,1.66,0,0,0-.958-1.35,1.961,1.961,0,0,1-2.477,1.595c-.173-.556.82-.654,1.167-1.131s-.065-1.065-.474-1.438a6.35,6.35,0,0,0-3.951-1.539,5.15,5.15,0,0,1-2.719-.327c-.464-.275-.791-.729-1.265-.98-1.013-.575-2.288-.046-3.3.52-1.4.775-2.834,1.749-3.327,3.268s.6,3.562,2.19,3.373a3.1,3.1,0,0,1,1.213-.137,1.465,1.465,0,0,1,.863,1.4,4.047,4.047,0,0,0,.265,1.7c.281.51,1.1.768,1.422.284.748-.712.654-1.905.467-2.919a3.873,3.873,0,0,1,.209-2.981c.6-.83,2.343-.565,2.222.458-.072.6-.755,1.039-.729,1.634s.784.948,1.405.918a6.322,6.322,0,0,1,1.85-.092c.6.154,1.092.941.654,1.386-.758.856-2.726-.611-3.118.458-.111.271,0,.582-.029.873-.072.9-1.193,1.222-2.085,1.333a4.83,4.83,0,0,1-2.654-.193,1.686,1.686,0,0,1-.9-2.216,1.018,1.018,0,0,0-1.4.51,2.892,2.892,0,0,0-.1,1.66c-.948-.209-1.8.592-2.334,1.386s-1.069,1.732-1.987,2.013-2.206-.1-2.69.739c-.628,1.095,1.193,2.481.556,3.566-.363.611-1.239.592-1.932.784a2.979,2.979,0,0,0-1.222,4.628,3.586,3.586,0,0,0,5.069-.016,15.717,15.717,0,0,0,1.961-3.393c.654-1.131,1.925-2.141,3.183-1.778a3.922,3.922,0,0,1,1.307.82c.608.513,1.219,1.023,1.83,1.543.392.327.82.739.784,1.248-.039.428-.366.755-.5,1.124-.382,1.1,1.213,2.151,2.216,1.549a2.208,2.208,0,0,0,.428-3.089c-.948-1.307-3.089-1.961-3.036-3.6,1.095-.892,2.817.046,3.455,1.307s.654,2.755,1.2,4.059,2.043,2.468,3.3,1.83c-.327-1.131-.654-2.252-.981-3.373.8-.6,1.722,1.15,2.68.856.582-.18.654-1.02.4-1.585a8.02,8.02,0,0,1-.814-1.634,1.88,1.88,0,0,1,2.18-1.922,2.845,2.845,0,0,1,2.134,2.35,5.11,5.11,0,0,0,.291,1.307c.418.876,1.5,1.141,2.4,1.5s1.834,1.268,1.458,2.16c-.17.392-.582.768-.435,1.167s.654.513.654.9c0,.255-.271.428-.51.526-.6.248-1.258.327-1.84.611a1.682,1.682,0,0,0-1.069,1.477c.075.912,1.16,1.35,1.67,2.1s.418,1.677.729,2.5a8.879,8.879,0,0,0,1.376,2c1.513,2.059,1.869,4.713,2.615,7.158.327,1.1.928,2.33,2.059,2.543a3.475,3.475,0,0,0,1.824-.356,11.039,11.039,0,0,0,4.465-2.66c1.137-1.32,1.533-3.494.356-4.795a.922.922,0,0,0-.556-.356,1.674,1.674,0,0,0-.856.3,2.442,2.442,0,0,1-2.543-.549,7.094,7.094,0,0,1-1.513-2.268c-.448-.9-.9-1.814-1.35-2.726a1.61,1.61,0,0,1,1.961.183,9.959,9.959,0,0,1,1.33,1.634,8.486,8.486,0,0,0,5.752,2.7,5.5,5.5,0,0,1,1.634.327c1.615.739,2.079,3.115,3.785,3.628a10.576,10.576,0,0,1,1.448.327,2.687,2.687,0,0,1,1.213,1.8,28.669,28.669,0,0,0,1.065,4.03,3.729,3.729,0,0,0,3.082,2.451,3.3,3.3,0,0,0,2.314-1.03h0c.075-1.258.118-2.517.118-3.791C304.242,167.673,304.242,167.408,304.226,167.144Z" transform="translate(-112.916 -24.463)" fill="#fafafa" opacity="0"/>
    <path id="Path_7500" data-name="Path 7500" d="M345.365,332.749c-.86.17-1.03.673-1.5,1.307-.608.827-1.477,1.657-2.03,2.474-.935,1.383-.091,3.543-1.324,4.706a9.764,9.764,0,0,0-.8.654,1.454,1.454,0,0,0,.3,2.01,1.981,1.981,0,0,0,2.147.039,3.151,3.151,0,0,0,1.307-1.8,3.146,3.146,0,0,1,.654-1.474c.706-.614,1.8-.157,2.729-.288C350.814,339.831,349.117,332.01,345.365,332.749Z" transform="translate(-177.235 -166.138)" fill="#dcd2eb"/>
  </g>
</svg>
