<svg id="facebook" xmlns="http://www.w3.org/2000/svg" xmlns:xlink="http://www.w3.org/1999/xlink" width="23" height="23" viewBox="0 0 23 23">
  <defs>
    <linearGradient id="linear-gradient" x1="0.5" x2="0.5" y2="1" gradientUnits="objectBoundingBox">
      <stop offset="0" stop-color="#5b618a"/>
      <stop offset="0.674" stop-color="#bd7ecf"/>
      <stop offset="1" stop-color="#ba15e6"/>
    </linearGradient>
    <linearGradient id="linear-gradient-2" x1="0.5" x2="0.5" y2="1" gradientUnits="objectBoundingBox">
      <stop offset="0" stop-color="#5b618a"/>
      <stop offset="0.49" stop-color="#bcb5cd"/>
      <stop offset="0.734" stop-color="#be8cd5"/>
      <stop offset="1" stop-color="#c415ec"/>
    </linearGradient>
  </defs>
  <path id="Path_5386" data-name="Path 5386" d="M27.345,28.97V21.428H29.59l.391-3.352H27.345V16.208c0-.879-.055-1.478,1.205-1.478h1.309V12.014a19.455,19.455,0,0,0-2.152-.119c-2.318,0-3.714,1.415-3.714,4.012v2.168H21.06v3.352h2.933V28.97Z" transform="translate(-11.252 -6.389)" fill="url(#linear-gradient)"/>
  <path id="Path_5387" data-name="Path 5387" d="M25.24,28.46H8.68a3.224,3.224,0,0,1-3.22-3.22V8.68A3.224,3.224,0,0,1,8.68,5.46H25.24a3.224,3.224,0,0,1,3.22,3.22V25.24A3.224,3.224,0,0,1,25.24,28.46ZM8.68,6.964c-1.268,0-1.914.448-1.914,1.716V25.24c0,1.268.646,1.7,1.914,1.7H25.24c1.268,0,1.775-.43,1.775-1.7V8.68c0-1.268-.506-1.716-1.775-1.716Z" transform="translate(-5.46 -5.46)" fill="url(#linear-gradient-2)"/>
</svg>
