<svg id="instagram" xmlns="http://www.w3.org/2000/svg" xmlns:xlink="http://www.w3.org/1999/xlink" width="22.854" height="22.854" viewBox="0 0 22.854 22.854">
  <defs>
    <linearGradient id="linear-gradient" x1="0.5" y1="-0.007" x2="0.5" y2="1.017" gradientUnits="objectBoundingBox">
      <stop offset="0" stop-color="#5b618a"/>
      <stop offset="0.49" stop-color="#bcb5cd"/>
      <stop offset="0.734" stop-color="#be8cd5"/>
      <stop offset="1" stop-color="#c415ec"/>
    </linearGradient>
    <linearGradient id="linear-gradient-2" x1="0.5" y1="-0.032" x2="0.5" y2="1.026" gradientUnits="objectBoundingBox">
      <stop offset="0" stop-color="#5b618a"/>
      <stop offset="0.674" stop-color="#bd7ecf"/>
      <stop offset="1" stop-color="#ba15e6"/>
    </linearGradient>
    <linearGradient id="linear-gradient-3" y1="-0.375" y2="1.342" xlink:href="#linear-gradient-2"/>
  </defs>
  <path id="Path_5881" data-name="Path 5881" d="M22.092,28.034H11.122A5.949,5.949,0,0,1,5.18,22.092V11.122A5.949,5.949,0,0,1,11.122,5.18h10.97a5.949,5.949,0,0,1,5.942,5.942v10.97A5.949,5.949,0,0,1,22.092,28.034ZM11.122,6.415a4.5,4.5,0,0,0-4.707,4.707v10.97A4.5,4.5,0,0,0,11.122,26.8h10.97A4.5,4.5,0,0,0,26.8,22.092V11.122a4.5,4.5,0,0,0-4.707-4.707Z" transform="translate(-5.18 -5.18)" fill="url(#linear-gradient)"/>
  <path id="Path_5882" data-name="Path 5882" d="M20,25.944A5.942,5.942,0,1,1,25.944,20,5.949,5.949,0,0,1,20,25.944Zm0-10.056A4.114,4.114,0,1,0,24.116,20,4.119,4.119,0,0,0,20,15.888Z" transform="translate(-8.575 -8.575)" fill="url(#linear-gradient-2)"/>
  <path id="Path_5883" data-name="Path 5883" d="M33.191,11.1a1.371,1.371,0,1,0,1.371,1.371A1.371,1.371,0,0,0,33.191,11.1Z" transform="translate(-15.365 -7.443)" fill="url(#linear-gradient-3)"/>
</svg>
