<svg xmlns="http://www.w3.org/2000/svg" width="119.121" height="134.801" viewBox="0 0 119.121 134.801">
  <g id="plane" transform="translate(7.967 497.275) rotate(-137)">
    <path id="Path_7505" data-name="Path 7505" d="M145.88,349.41c2.37.47,4,2.64,6,4s5.57,1.18,6-1.2c-2.37-2.17-1.22-6.85,1.89-7.67,2.16-.57,4.35.5,6.51,1.06s5,.27,5.85-1.79c.66-1.63-.27-3.68.67-5.17,2.06-3.24,8.27,1.45,10.66-1.54,1-1.23.62-3.11,1.44-4.45,1-1.67,3.31-1.82,5.19-2.36,7.14-2.06,9.52-10.79,10.74-18.12,2.71,4.09,1.63,9.62-.44,14.07s-5,8.56-6.06,13.36a13.88,13.88,0,0,1-1,3.74c-1.37,2.58-4.79,3.63-5.92,6.31-.86,2-.27,4.75-1.92,6.22-2.21,1.95-6.71,0-8.1,2.6-1,1.81.73,4,.5,6-.27,2.38-2.92,3.6-5.19,4.37l-14.49,4.92a5.12,5.12,0,0,1-3.49.33c-1.44-.58-2.72-2.47-4.08-1.71a3.29,3.29,0,0,0-1,1.14" transform="translate(622.7 488.974) rotate(137)" fill="#e9dcec"/>
    <path id="Path_7503" data-name="Path 7503" d="M228.49,353.4c4.44-2.91,4.54-9.27,4.14-14.56l-1.08-14.6c2.93-.45,3.35-4.59,2.37-7.39s-2.58-5.93-1.11-8.51a9.349,9.349,0,0,0,1.46-2.48c.33-1.57-1.07-3-1.32-4.56-.82-5.14,9.77-7.51,7.72-12.3-1.35-3.15-7.57-3.52-6.8-6.86.43-1.87,2.86-2.32,4.26-3.62,3.44-3.2-.65-8.67-.85-13.36-.15-3.38-1.2-2.06-2-5.35-1.45-5.85-.92-7.9-3.14-5.63.38,7.29-.06,9.1-5.26,14.23a18.75,18.75,0,0,0-3.71,4.16C219.5,279.37,228.35,288,225,295c-1.64,3.39-5.74,5.05-7.41,8.43-3,6,3.06,13.92-.53,19.55-.72,1.14-1.78,2-2.58,3.12a8.68,8.68,0,0,0-.68,9c-1.3-2.12-4.89-1.36-6.2.76s-1,4.83-.69,7.31.63,5.16-.65,7.31c-1,1.64-2.83,2.86-3.08,4.76" transform="translate(547.571 604.009) rotate(164)" fill="#5b618a" opacity="0.51"/>
    <g id="Group_481" data-name="Group 481" transform="translate(612.013 492.102) rotate(137)" opacity="0.8">
      <path id="Path_7506" data-name="Path 7506" d="M139.66,360a10,10,0,0,1,.22-7.24,5.8,5.8,0,0,1,6-3.35c2.37.47,4,2.64,6,4s5.57,1.18,6-1.2c-2.37-2.17-1.22-6.85,1.89-7.67,2.16-.57,4.35.5,6.51,1.06s5,.27,5.85-1.79c.66-1.63-.27-3.68.67-5.17,2.06-3.24,8.27,1.45,10.66-1.54,1-1.23.62-3.11,1.44-4.45,1-1.67,3.31-1.82,5.19-2.36,7.14-2.06,9.52-10.79,10.74-18.12,2.71,4.09,1.63,9.62-.44,14.07s-5,8.56-6.06,13.36a13.88,13.88,0,0,1-1,3.74c-1.37,2.58-4.79,3.63-5.92,6.31-.86,2-.27,4.75-1.92,6.22-2.21,1.95-6.71,0-8.1,2.6-1,1.81.73,4,.5,6-.27,2.38-2.92,3.6-5.19,4.37l-14.49,4.92a5.12,5.12,0,0,1-3.49.33c-1.44-.58-2.72-2.47-4.08-1.71a3.29,3.29,0,0,0-1,1.14c-2.27,3.39-7.35,3.81-11,2.05s-.2-14.16-.2-16.1" fill="#5b618a"/>
    </g>
    <path id="Path_7531" data-name="Path 7531" d="M241.313,285.037s.667,45.5,11.507,45.633c0,0,1.43,2.07,3.82-2.39s6.53-31.54,6.22-48.27c-.038-1.976-1.759-4.459-1.759-4.459Z" fill="#ff725e"/>
    <path id="Path_7532" data-name="Path 7532" d="M241.234,285.059s.746,45.481,11.586,45.611c0,0,1.43,2.07,3.82-2.39s6.949-33.792,6.639-50.522c-.014-.735-1.2-1.282-1.2-1.282s-.449-.431-1.22-1.183c-.108-.1-.318-.467-.715-.893l-2.175-2.332-1.307-1.4s-.919.883-1.882,1.755c-.955.851-2.592,2.518-5.009,4.671C245.853,280.587,241.234,285.059,241.234,285.059Z" fill="#e9dcec"/>
    <g id="Group_489" data-name="Group 489">
      <path id="Path_7530" data-name="Path 7530" d="M244,312.76l-33.03,22.65v9.22l38.94-11.46h5l38.03,11.46v-8.97l-32.76-22.9Z" fill="#5b618a" stroke="#e9dcec" stroke-width="1"/>
      <path id="Path_7541" data-name="Path 7541" d="M249.18,294.23l1.25,66.84h3.28l1.052-59.647.128-7.253a4,4,0,0,0-1.29-3.09,2.17,2.17,0,0,0-3.16.07A4,4,0,0,0,249.18,294.23Z" fill="#5b618a" stroke="#e9dcec" stroke-width="1"/>
    </g>
    <path id="Path_7542" data-name="Path 7542" d="M250.38,358.6a2.739,2.739,0,0,1-.06-.65c0-.49,0-1.1-.07-1.84,0-1.69-.1-4-.17-6.8-.16-5.81-.37-13.7-.6-22.41s-.38-16.68-.41-22.42v-8.65a2.46,2.46,0,0,1,.05-.64,1.919,1.919,0,0,1,.07.64c0,.49,0,1.1.06,1.85.05,1.69.11,4,.18,6.79.15,5.82.36,13.7.6,22.42s.38,16.68.41,22.42v6.8c0,.74,0,1.35-.05,1.84A2.74,2.74,0,0,1,250.38,358.6Z" fill="#5b618a"/>
    <path id="Path_7543" data-name="Path 7543" d="M254.89,296c-.58,14.31-1,56.44-1,56.44" fill="#ff725e"/>
    <path id="Path_7544" data-name="Path 7544" d="M253.86,352.47a1.921,1.921,0,0,1-.05-.57c0-.45,0-1,0-1.64v-6.05c0-5.11.13-12.17.27-20s.3-14.85.45-20c.09-2.48.16-4.52.21-6,0-.66.06-1.2.08-1.65a2.06,2.06,0,0,1,.08-.57,2.651,2.651,0,0,1,.05.58c0,.45,0,1,0,1.64v6.06c0,5.1-.13,12.16-.27,19.95s-.3,14.85-.45,19.95c-.09,2.48-.16,4.52-.21,6.05,0,.65-.06,1.2-.09,1.64a1.74,1.74,0,0,1-.07.61Z" fill="#5b618a"/>
  </g>
</svg>
