<svg id="youtube" xmlns="http://www.w3.org/2000/svg" xmlns:xlink="http://www.w3.org/1999/xlink" width="23.989" height="19.84" viewBox="0 0 23.989 19.84">
  <defs>
    <linearGradient id="linear-gradient" x1="0.5" y1="-0.024" x2="0.5" y2="1.042" gradientUnits="objectBoundingBox">
      <stop offset="0" stop-color="#5b618a"/>
      <stop offset="0.49" stop-color="#bcb5cd"/>
      <stop offset="0.734" stop-color="#be8cd5"/>
      <stop offset="1" stop-color="#c415ec"/>
    </linearGradient>
    <linearGradient id="linear-gradient-2" x1="0.394" y1="0.706" x2="0.5" y2="0.962" gradientUnits="objectBoundingBox">
      <stop offset="0" stop-color="#5b618a"/>
      <stop offset="0.674" stop-color="#bd7ecf"/>
      <stop offset="1" stop-color="#ba15e6"/>
    </linearGradient>
    <linearGradient id="linear-gradient-3" x1="0.5" y1="0.073" x2="0.5" y2="1.295" gradientUnits="objectBoundingBox">
      <stop offset="0" stop-color="#5b618a"/>
      <stop offset="0.286" stop-color="#bd7ecf"/>
      <stop offset="1" stop-color="#ba15e6"/>
    </linearGradient>
  </defs>
  <path id="Path_5878" data-name="Path 5878" d="M13.91,26.857c-2.63,0-5.26-.092-7.983-.276a4.422,4.422,0,0,1-3.85-4.34,87.214,87.214,0,0,1,0-10.609,4.423,4.423,0,0,1,3.851-4.34,115.739,115.739,0,0,1,15.966,0,4.422,4.422,0,0,1,3.85,4.34,87.214,87.214,0,0,1,0,10.609,4.423,4.423,0,0,1-3.851,4.34h0C19.17,26.765,16.54,26.857,13.91,26.857Zm7.934-1.406.471.556-.471-.556c1.638-.111,2.648-1.347,2.763-3.21a86.07,86.07,0,0,0,0-10.489c-.114-1.863-1.077-3.22-2.715-3.33a116.486,116.486,0,0,0-15.966,0c-1.638.111-2.6,1.412-2.715,3.276a86.972,86.972,0,0,0,0,10.544c.114,1.863,1.078,3.1,2.715,3.21A115.782,115.782,0,0,0,21.844,25.452Z" transform="translate(-1.915 -7.017)" fill="url(#linear-gradient)"/>
  <path id="Path_5879" data-name="Path 5879" d="M15.949,22.82V15.414l5.559,3.7Z" transform="translate(-6.029 -9.197)" fill="url(#linear-gradient-2)"/>
  <path id="Path_5880" data-name="Path 5880" d="M15.311,23.354V14.3l6.794,4.526Zm.827-7.407v5.761l4.325-2.88Z" transform="translate(-6.009 -8.908)" fill="url(#linear-gradient-3)"/>
</svg>
